<?xml version="1.0" standalone="no"?>
<!DOCTYPE svg PUBLIC "-//W3C//DTD SVG 20010904//EN" "http://www.w3.org/TR/2001/REC-SVG-20010904/DTD/svg10.dtd">
<svg xmlns="http://www.w3.org/2000/svg" version="1.0" width="200.000000pt" height="200.000000pt" viewBox="0 0 200.000000 200.000000" preserveAspectRatio="xMidYMid meet">
<metadata>
Created by potrace 1.16, written by Peter Selinger 2001-2019
<meta name="Producer" content="Online-Convert"/></metadata>
<g transform="translate(0.000000,200.000000) scale(0.100000,-0.100000)" fill="#000000" stroke="none">
<path d="M900 1736 c-154 -43 -265 -167 -291 -325 -27 -169 69 -344 229 -419 50 -24 69 -27 162 -27 93 0 112 3 162 27 160 75 256 251 229 419 -38 233 -270 386 -491 325z"/>
<path d="M705 878 c-34 -19 -93 -65 -135 -108 -125 -124 -180 -255 -180 -432 l0 -88 610 0 610 0 0 88 c0 176 -55 308 -180 433 -48 48 -98 87 -141 109 l-66 34 -74 -22 c-95 -28 -204 -29 -291 -2 -81 25 -82 25 -153 -12z"/>
</g>
</svg>
